<svg xmlns="http://www.w3.org/2000/svg" height="511pt" version="1.1" viewBox="-74 1 511 511.99897" width="511pt">
<g id="surface1">
<path d="M 362.789062 291.128906 C 362.792969 290.980469 362.796875 290.835938 362.796875 290.6875 C 362.796875 260.269531 338.046875 235.519531 307.625 235.519531 L 292.566406 235.519531 L 358.589844 76.28125 C 370.226562 48.183594 356.835938 15.847656 328.734375 4.199219 C 300.628906 -7.441406 268.292969 5.953125 256.652344 34.058594 L 215.390625 133.667969 L 174.132812 34.054688 C 162.488281 5.953125 130.152344 -7.441406 102.050781 4.199219 C 73.949219 15.84375 60.554688 48.175781 72.195312 76.277344 L 108.039062 162.816406 C 103.515625 165.488281 99.410156 168.785156 95.832031 172.589844 C 85.761719 161.886719 71.488281 155.179688 55.667969 155.175781 C 25.246094 155.175781 0.5 179.925781 0.5 210.347656 L 0.5 330.851562 C 0.5 430.738281 81.761719 512 181.648438 512 C 281.53125 512 362.792969 430.738281 362.792969 330.851562 Z M 113.535156 31.917969 C 126.351562 26.605469 141.101562 32.71875 146.414062 45.539062 L 201.53125 178.605469 C 203.855469 184.210938 209.324219 187.867188 215.390625 187.867188 C 221.457031 187.867188 226.925781 184.210938 229.25 178.605469 L 284.367188 45.539062 C 289.679688 32.71875 304.429688 26.605469 317.25 31.914062 C 330.070312 37.230469 336.179688 51.980469 330.871094 64.796875 L 260.085938 235.519531 L 191.167969 235.519531 L 191.171875 210.347656 C 191.167969 180.386719 167.152344 155.945312 137.363281 155.210938 L 99.914062 64.800781 C 94.601562 51.980469 100.714844 37.230469 113.535156 31.917969 Z M 136 235.519531 C 126.9375 235.519531 118.386719 237.730469 110.835938 241.621094 L 110.835938 210.347656 C 110.835938 196.46875 122.125 185.179688 136 185.179688 C 149.878906 185.179688 161.167969 196.472656 161.171875 210.347656 L 161.167969 235.519531 Z M 30.5 210.347656 C 30.5 196.46875 41.789062 185.175781 55.664062 185.175781 C 69.542969 185.179688 80.832031 196.472656 80.835938 210.347656 L 80.835938 290.683594 C 80.832031 304.558594 69.542969 315.847656 55.667969 315.847656 C 41.792969 315.847656 30.5 304.558594 30.5 290.683594 Z M 181.648438 482 C 101.34375 482 35.472656 419.042969 30.78125 339.894531 C 38.261719 343.691406 46.714844 345.851562 55.667969 345.851562 C 71.488281 345.851562 85.765625 339.144531 95.835938 328.4375 C 105.90625 339.144531 120.179688 345.851562 136.003906 345.851562 L 267.457031 345.851562 C 275.742188 345.851562 282.457031 339.136719 282.457031 330.851562 C 282.457031 322.570312 275.742188 315.851562 267.457031 315.851562 L 136.003906 315.851562 C 122.128906 315.851562 110.835938 304.558594 110.835938 290.683594 C 110.839844 276.808594 122.128906 265.519531 136.003906 265.519531 L 176.164062 265.519531 C 176.167969 265.519531 176.167969 265.519531 176.167969 265.519531 L 176.171875 265.519531 C 176.171875 265.519531 176.171875 265.519531 176.175781 265.519531 L 270.027344 265.519531 C 270.050781 265.519531 270.078125 265.523438 270.101562 265.523438 C 270.136719 265.523438 270.167969 265.519531 270.203125 265.519531 L 307.625 265.519531 C 321.449219 265.519531 332.703125 276.714844 332.796875 290.515625 C 332.792969 290.652344 332.792969 290.792969 332.792969 290.933594 L 332.792969 330.851562 C 332.792969 414.195312 264.988281 482 181.648438 482 Z M 181.648438 482 " style=" stroke:none;fill-rule:nonzero;fill:rgb(0%,0%,0%);fill-opacity:1;" />
</g>
</svg>