<?xml version="1.0" encoding="iso-8859-1"?>
<!-- Generator: Adobe Illustrator 16.0.0, SVG Export Plug-In . SVG Version: 6.00 Build 0)  -->
<!DOCTYPE svg PUBLIC "-//W3C//DTD SVG 1.1//EN" "http://www.w3.org/Graphics/SVG/1.1/DTD/svg11.dtd">
<svg version="1.1" id="Capa_1" xmlns="http://www.w3.org/2000/svg" xmlns:xlink="http://www.w3.org/1999/xlink" x="0px" y="0px"
	 width="406.215px" height="406.215px" viewBox="0 0 406.215 406.215" style="enable-background:new 0 0 406.215 406.215;"
	 xml:space="preserve">
<g>
	<g>
		<g>
			<path d="M226.793,243.186v163.029h134.115c17.431,0,31.568-14.129,31.568-31.57V243.186H226.793z"/>
			<path d="M179.374,243.186H13.749v131.459c0,17.441,14.141,31.57,31.57,31.57h134.055V243.186z M56.788,373.086
				c-6.545,0-11.855-5.311-11.855-11.854v-65.778c0-6.544,5.311-11.854,11.855-11.854s11.855,5.312,11.855,11.854v65.778
				C68.643,367.775,63.333,373.086,56.788,373.086z"/>
		</g>
		<path d="M371.176,119.564h-59.293c8.184-3.928,15.049-7.986,19.2-12.133c24.423-24.419,24.423-64.03,0-88.453
			C318.857,6.768,302.85,0.664,286.844,0.664c-16.009,0-32.019,6.104-44.229,18.314c-10.141,10.144-19.897,35.182-27.862,60.983
			c-3.72-1.021-7.549-1.736-11.577-1.736c-4.014,0-7.844,0.716-11.547,1.729c-7.996-26.034-17.844-51.412-28.08-61.641
			C151.338,6.103,135.346,0,119.322,0c-16.008,0-32.016,6.104-44.227,18.313c-24.422,24.432-24.422,64.035,0,88.453
			c4.369,4.388,11.73,8.679,20.562,12.798H35.038c-17.43,0-31.553,14.128-31.553,31.556v26.852c0,17.43,14.123,31.551,31.553,31.551
			h144.336v-88.707h47.419v88.707h144.384c17.428,0,31.553-14.123,31.553-31.552v-26.852
			C402.729,133.692,388.604,119.564,371.176,119.564z M264.971,41.332c5.834-5.838,13.612-9.057,21.873-9.057
			c8.272,0,16.039,3.219,21.891,9.057c5.834,5.841,9.045,13.607,9.045,21.873s-3.211,16.031-9.016,21.835
			c-6.531,6.161-32.107,15.76-63.725,24.701c-0.894-3.066-2.101-5.967-3.627-8.716C250.026,71.272,259.073,47.567,264.971,41.332z
			 M97.448,40.668c5.836-5.834,13.615-9.053,21.875-9.053c8.273,0,16.039,3.211,21.857,9.037
			c5.945,6.291,15.098,30.303,23.773,60.365c-1.436,2.577-2.576,5.296-3.473,8.158c-31.768-8.952-57.502-18.6-64.033-24.758
			C85.391,72.353,85.391,52.732,97.448,40.668z"/>
	</g>
</g>
<g>
</g>
<g>
</g>
<g>
</g>
<g>
</g>
<g>
</g>
<g>
</g>
<g>
</g>
<g>
</g>
<g>
</g>
<g>
</g>
<g>
</g>
<g>
</g>
<g>
</g>
<g>
</g>
<g>
</g>
</svg>
